<svg xmlns="http://www.w3.org/2000/svg" width="760" height="280" role="img">
<title>Leader timeline for syn-p-02</title>
<rect width="100%" height="100%" fill="#fafafa"/>
<text x="16" y="24" font-family="sans-serif" font-size="14">syn-p-02 timeline</text>
<text x="16" y="62" font-family="sans-serif" font-size="11">Charter shift</text>
<line x1="120" y1="58" x2="740" y2="58" stroke="#dddddd" stroke-width="1"/>
<text x="16" y="102" font-family="sans-serif" font-size="11">Transfer</text>
<line x1="120" y1="98" x2="740" y2="98" stroke="#dddddd" stroke-width="1"/>
<text x="16" y="142" font-family="sans-serif" font-size="11">Report</text>
<line x1="120" y1="138" x2="740" y2="138" stroke="#dddddd" stroke-width="1"/>
<circle cx="461.0" cy="138" r="4" fill="white" stroke="#3d3d3d" stroke-width="1.5"><title>t=11 a1 report_submitted syn-p-02:0018</title></circle>
<circle cx="740.0" cy="138" r="4" fill="white" stroke="#3d3d3d" stroke-width="1.5"><title>t=20 a4 report_submitted syn-p-02:0023</title></circle>
<text x="16" y="182" font-family="sans-serif" font-size="11">Violation</text>
<line x1="120" y1="178" x2="740" y2="178" stroke="#dddddd" stroke-width="1"/>
<text x="16" y="222" font-family="sans-serif" font-size="11">Membership</text>
<line x1="120" y1="218" x2="740" y2="218" stroke="#dddddd" stroke-width="1"/>
<circle cx="244.0" cy="218" r="4" fill="white" stroke="#1b6b43" stroke-width="1.5"><title>t=4 - membership_change syn-p-02:0009</title></circle>
<circle cx="244.0" cy="218" r="4" fill="white" stroke="#1b6b43" stroke-width="1.5"><title>t=4 - membership_change syn-p-02:0010</title></circle>
<circle cx="244.0" cy="218" r="4" fill="white" stroke="#1b6b43" stroke-width="1.5"><title>t=4 - membership_change syn-p-02:0011</title></circle>
<circle cx="244.0" cy="218" r="4" fill="white" stroke="#1b6b43" stroke-width="1.5"><title>t=4 - membership_change syn-p-02:0012</title></circle>
<circle cx="523.0" cy="218" r="4" fill="white" stroke="#1b6b43" stroke-width="1.5"><title>t=13 - agent_added syn-p-02:0017</title></circle>
<circle cx="647.0" cy="218" r="4" fill="white" stroke="#1b6b43" stroke-width="1.5"><title>t=17 - agent_removed syn-p-02:0020</title></circle>
<text x="16" y="268" font-family="sans-serif" font-size="10" fill="#444">Filled marks are the leader. Violations are simulator events.</text>
</svg>